<?xml version="1.0" encoding="UTF-8" standalone="no"?>
<svg
   xmlns:dc="http://purl.org/dc/elements/1.1/"
   xmlns:cc="http://creativecommons.org/ns#"
   xmlns:rdf="http://www.w3.org/1999/02/22-rdf-syntax-ns#"
   xmlns:svg="http://www.w3.org/2000/svg"
   xmlns="http://www.w3.org/2000/svg"
   xmlns:sodipodi="http://sodipodi.sourceforge.net/DTD/sodipodi-0.dtd"
   xmlns:inkscape="http://www.inkscape.org/namespaces/inkscape"
   version="1.1"
   width="396"
   height="500"
   id="svg2"
   inkscape:version="1.0.2-2 (e86c870879, 2021-01-15)"
   sodipodi:docname="background.svg">
  <metadata
     id="metadata29">
    <rdf:RDF>
      <cc:Work
         rdf:about="">
        <dc:format>image/svg+xml</dc:format>
        <dc:type
           rdf:resource="http://purl.org/dc/dcmitype/StillImage" />
      </cc:Work>
    </rdf:RDF>
  </metadata>
  <sodipodi:namedview
     pagecolor="#ffffff"
     bordercolor="#666666"
     borderopacity="1"
     objecttolerance="10"
     gridtolerance="10"
     guidetolerance="10"
     inkscape:pageopacity="0"
     inkscape:pageshadow="2"
     inkscape:window-width="1280"
     inkscape:window-height="961"
     id="namedview27"
     showgrid="false"
     inkscape:zoom="1.04"
     inkscape:cx="111.97355"
     inkscape:cy="318.88515"
     inkscape:window-x="-8"
     inkscape:window-y="-8"
     inkscape:window-maximized="1"
     inkscape:current-layer="svg2"
     inkscape:document-rotation="0" />
  <defs
     id="defs4">
    <inkscape:perspective
       sodipodi:type="inkscape:persp3d"
       inkscape:vp_x="0 : 250 : 1"
       inkscape:vp_y="0 : 1000 : 0"
       inkscape:vp_z="396 : 250 : 1"
       inkscape:persp3d-origin="198 : 166.66667 : 1"
       id="perspective31" />
  </defs>
  <path
     d="m 283.45739,234.24854 -0.57219,32.30424 5.17581,2.49868 4.28344,-2.3202 0.17847,-32.30424 m -278.64038,34.80291 0,4.55115 m -1.33858,-11.86868 -6.7821,0 m 17.13374,0.26771 -7.76373,0 m -5.67448,-27.93157 -0.57219,32.30424 5.17581,2.49868 4.28344,-2.3202 0.17847,-32.30424 m 87.35962,34.80291 0,4.55115 m -1.33858,-11.86868 -6.7821,0 m 17.13374,0.26771 -7.76373,0 m -5.67448,-27.93157 -0.57219,32.30424 5.17581,2.49868 4.28344,-2.3202 0.17847,-32.30424 m 267.35962,34.80291 0,4.55115 m -1.33858,-11.86868 -6.7821,0 m 17.13374,0.26771 -7.76373,0 m -91.24933,7.04982 0,4.55115 m -1.33858,-11.86868 -6.7821,0 m 17.13374,0.26771 -7.76373,0 m 84.32552,-27.93157 -0.57219,32.30424 5.17581,2.49868 4.28344,-2.3202 0.17847,-32.30424 M 54.43346,117.74017 l -0.57219,32.30424 5.17581,2.49868 4.28344,-2.3202 0.17847,-32.30424 m 4.37268,27.75309 -7.76373,0 m -2.58791,-0.26771 -6.7821,0 m 8.12068,7.31753 0,4.55115 m 266.45151,-38.77401 -0.57219,32.30424 5.17581,2.49868 4.28344,-2.3202 0.17847,-32.30424 m 4.37268,27.75309 -7.76373,0 m -2.58791,-0.26771 -6.7821,0 m 8.12068,7.31753 0,4.55115"
     id="path3825"
     style="color:#000000;fill:none;stroke:#000000;stroke-width:2;stroke-linecap:butt;stroke-linejoin:miter;stroke-miterlimit:4;stroke-opacity:1;stroke-dasharray:none;stroke-dashoffset:0;marker:none;visibility:visible;display:inline;overflow:visible;enable-background:accumulate" />
  <path
     d="m 194.18239,7.4049591 3.21258,112.4401709 2.14172,135.99907"
     id="path3823"
     style="color:#000000;fill:none;stroke:#000000;stroke-width:1;stroke-linecap:butt;stroke-linejoin:miter;stroke-miterlimit:4;stroke-opacity:1;stroke-dasharray:none;stroke-dashoffset:0;marker:none;visibility:visible;display:inline;overflow:visible;enable-background:accumulate" />
  <path
     d="m 91.023,120.73751 16.06288,-3.92648 16.41983,5.17582 19.27546,-4.28344 15.1705,3.74801 14.45659,-4.81887 20.34632,5.71125 27.66385,-4.81886 18.2046,4.46191 18.02613,-4.28344 16.77678,3.74801 15.70593,-2.14172"
     id="path3821"
     style="color:#000000;fill:none;stroke:#000000;stroke-width:1;stroke-linecap:butt;stroke-linejoin:miter;stroke-miterlimit:4;stroke-opacity:1;stroke-dasharray:none;stroke-dashoffset:0;marker:none;visibility:visible;display:inline;overflow:visible;enable-background:accumulate" />
  <path
     d="m 42.65587,236.74722 9.63773,-0.89238 12.67183,1.78476 4.64039,-2.14172 12.67183,2.67714 7.85296,-2.67714 12.31488,3.0341 9.1023,-4.81886 13.20726,4.99733 12.67183,-4.81886 16.95526,5.17582 14.63507,-5.71125 14.27812,5.71125 14.81355,-5.71125 16.77678,5.17582 11.60097,-4.81886 12.67183,4.46191 7.31754,-4.46191 12.49335,4.81886 11.42249,-4.64039 15.70593,4.64039 13.74269,-3.39105 12.1364,2.85562 16.24136,-2.32019 17.4907,1.24933"
     id="path3819"
     style="color:#000000;fill:none;stroke:#000000;stroke-width:1;stroke-linecap:butt;stroke-linejoin:miter;stroke-miterlimit:4;stroke-opacity:1;stroke-dasharray:none;stroke-dashoffset:0;marker:none;visibility:visible;display:inline;overflow:visible;enable-background:accumulate" />
  <path
     d="m 280.42066,110.54088 -19.8137,11.61058 -28.01682,-20.31851 -22.84255,20.94952"
     id="path3817"
     style="color:#000000;fill:none;stroke:#000000;stroke-width:1;stroke-linecap:butt;stroke-linejoin:miter;stroke-miterlimit:4;stroke-opacity:1;stroke-dasharray:none;stroke-dashoffset:0;marker:none;visibility:visible;display:inline;overflow:visible;enable-background:accumulate" />
  <path
     d="m 210.88341,117.22958 24.60937,-19.687497 26.5024,19.813697 19.93991,-9.46514"
     id="path3815"
     style="color:#000000;fill:none;stroke:#000000;stroke-width:1;stroke-linecap:butt;stroke-linejoin:miter;stroke-miterlimit:4;stroke-opacity:1;stroke-dasharray:none;stroke-dashoffset:0;marker:none;visibility:visible;display:inline;overflow:visible;enable-background:accumulate" />
  <path
     d="m 108.17801,107.15639 21.20192,10.34856 26.85804,-20.467675 24.98798,18.867195"
     id="path3813"
     style="color:#000000;fill:none;stroke:#000000;stroke-width:1;stroke-linecap:butt;stroke-linejoin:miter;stroke-miterlimit:4;stroke-opacity:1;stroke-dasharray:none;stroke-dashoffset:0;marker:none;visibility:visible;display:inline;overflow:visible;enable-background:accumulate" />
  <path
     d="m 108.78605,110.41468 19.4351,10.85336 26.88101,-19.30889 24.23077,21.83293"
     id="path3811"
     style="color:#000000;fill:none;stroke:#000000;stroke-width:1;stroke-linecap:butt;stroke-linejoin:miter;stroke-miterlimit:4;stroke-opacity:1;stroke-dasharray:none;stroke-dashoffset:0;marker:none;visibility:visible;display:inline;overflow:visible;enable-background:accumulate" />
  <path
     d="m 54.01442,118.87021 126.70673,-3.02885 28.26923,1.00962 128.22115,3.53365 -129.98798,2.52404 -26.5024,0.75721 -126.70673,-4.79567 z"
     id="path3807"
     style="color:#000000;fill:none;stroke:#000000;stroke-width:2;stroke-linecap:butt;stroke-linejoin:miter;stroke-miterlimit:4;stroke-opacity:1;stroke-dasharray:none;stroke-dashoffset:0;marker:none;visibility:visible;display:inline;overflow:visible;enable-background:accumulate" />
  <path
     d="M 335.53575,236.21179 315.18944,222.4691 286.6332,237.99655 248.97467,212.83137 213.8148,237.10417"
     id="path3805"
     style="color:#000000;fill:none;stroke:#000000;stroke-width:1;stroke-linecap:butt;stroke-linejoin:miter;stroke-miterlimit:4;stroke-opacity:1;stroke-dasharray:none;stroke-dashoffset:0;marker:none;visibility:visible;display:inline;overflow:visible;enable-background:accumulate" />
  <path
     d="m 218.09824,232.82073 34.80291,-24.62975 36.23072,25.87909 19.63241,-10.05418 21.2387,12.1959"
     id="path3803"
     style="color:#000000;fill:none;stroke:#000000;stroke-width:1;stroke-linecap:butt;stroke-linejoin:miter;stroke-miterlimit:4;stroke-opacity:1;stroke-dasharray:none;stroke-dashoffset:0;marker:none;visibility:visible;display:inline;overflow:visible;enable-background:accumulate"
     sodipodi:nodetypes="ccccc" />
  <path
     d="m 59.96809,235.85483 21.77413,-13.02878 23.91585,15.88441 35.33834,-26.05757 33.55357,25.70061"
     id="path3801"
     style="color:#000000;fill:none;stroke:#000000;stroke-width:1;stroke-linecap:butt;stroke-linejoin:miter;stroke-miterlimit:4;stroke-opacity:1;stroke-dasharray:none;stroke-dashoffset:0;marker:none;visibility:visible;display:inline;overflow:visible;enable-background:accumulate" />
  <path
     d="m 59.25419,236.92569 21.672136,-16.16487 25.802604,14.02315 36.76615,-27.66385 35.33834,26.05757"
     id="path3799"
     style="color:#000000;fill:none;stroke:#000000;stroke-width:1;stroke-linecap:butt;stroke-linejoin:miter;stroke-miterlimit:4;stroke-opacity:1;stroke-dasharray:none;stroke-dashoffset:0;marker:none;visibility:visible;display:inline;overflow:visible;enable-background:accumulate"
     sodipodi:nodetypes="ccccc" />
  <path
     d="m 176.15627,489.64837 -5.88972,-34.44596 7.31753,-39.26482 -4.64039,-32.48272 5.3543,-40.69263 -3.92648,-31.76882 6.60362,-39.80025 -4.64038,-32.12576 4.99734,-40.51416 -3.74801,-22.66651 5.17582,-32.12576 -2.85562,-21.95261 3.92648,-30.876426 0.53543,-20.16784 2.14172,-23.023464 2.49867,-18.383076 1.96324,-9.994682"
     id="path3793"
     style="color:#000000;fill:none;stroke:#000000;stroke-width:1;stroke-linecap:butt;stroke-linejoin:miter;stroke-miterlimit:4;stroke-opacity:1;stroke-dasharray:none;stroke-dashoffset:0;marker:none;visibility:visible;display:inline;overflow:visible;enable-background:accumulate" />
  <path
     d="m 169.37416,491.79008 8.03145,-38.90787 -5.88973,-34.44595 6.42515,-39.97873 -4.81886,-31.94729 6.78211,-39.97873 -4.99735,-32.30424 5.88973,-41.58501 -2.3202,-25.16518 4.46192,-34.80292 -4.10496,-22.84498 4.28343,-31.76881 -2.85562,-20.34632 5.53277,-30.162523 0.53543,-18.204599 3.0341,-19.453935 1.24933,-9.637729"
     id="path3791"
     style="color:#000000;fill:none;stroke:#000000;stroke-width:1;stroke-linecap:butt;stroke-linejoin:miter;stroke-miterlimit:4;stroke-opacity:1;stroke-dasharray:none;stroke-dashoffset:0;marker:none;visibility:visible;display:inline;overflow:visible;enable-background:accumulate" />
  <path
     d="m 234.87503,488.22055 -10.53011,-33.19662 5.53277,-39.4433 -8.03145,-32.48271 3.21258,-41.04959 -7.85296,-31.41186 4.64038,-40.33568 -8.56687,-31.0549 3.39106,-37.48006 -6.96058,-24.2728 2.85562,-33.01815 c 0,0 -5.88972,-21.9526 -6.0682,-22.84498 -0.17848,-0.89239 3.0341,-29.091668 3.0341,-29.091668 l -7.31754,-23.023464 -0.35695,-20.881746 -3.748,-17.66917 -2.49868,-10.887064"
     id="path3789"
     style="color:#000000;fill:none;stroke:#000000;stroke-width:1;stroke-linecap:butt;stroke-linejoin:miter;stroke-miterlimit:4;stroke-opacity:1;stroke-dasharray:none;stroke-dashoffset:0;marker:none;visibility:visible;display:inline;overflow:visible;enable-background:accumulate" />
  <path
     d="m 226.66511,491.61161 6.0682,-38.7294 -10.35164,-34.089 4.81887,-39.08635 -8.20992,-33.91053 4.10496,-40.1572 -8.03144,-31.59033 2.67715,-38.19397 -6.42515,-30.69795 2.14171,-31.41185 -4.10496,-22.48804 1.24934,-34.62443 -4.99734,-21.595656 -1.07086,-27.842329 -4.28344,-18.383077 -2.32019,-17.490693 -2.32019,-11.065541"
     id="path3787"
     style="color:#000000;fill:none;stroke:#000000;stroke-width:1;stroke-linecap:butt;stroke-linejoin:miter;stroke-miterlimit:4;stroke-opacity:1;stroke-dasharray:none;stroke-dashoffset:0;marker:none;visibility:visible;display:inline;overflow:visible;enable-background:accumulate" />
  <path
     d="m 234.51807,488.75598 -58.09409,-35.60605 53.09675,-37.74777 -51.31198,-36.85539 46.85007,-36.85539 -45.77921,-35.07063 41.40654,-37.30158 -40.15721,-36.4092 35.24911,-31.94729 -33.82129,-30.78719 30.60871,-25.43289 -29.35938,-27.48538 25.4329,-24.897464 -23.20194,-25.700611 15.8844,-17.936885 -11.69021,-19.007743 6.51439,-8.923824"
     id="path3785"
     style="color:#000000;fill:none;stroke:#000000;stroke-width:1;stroke-linecap:butt;stroke-linejoin:miter;stroke-miterlimit:4;stroke-opacity:1;stroke-dasharray:none;stroke-dashoffset:0;marker:none;visibility:visible;display:inline;overflow:visible;enable-background:accumulate" />
  <path
     d="m 225.90143,491.41827 -55.02403,-35.84135 52.49999,-35.84134 -50.70141,-36.99462 46.31464,-36.76615 -44.44064,-34.71367 40.6034,-36.49844 -38.2832,-35.51681 34.89214,-32.48272 -33.37509,-30.07329 30.69795,-25.78984 -28.91319,-29.00243 25.16518,-27.396137 -21.50641,-23.023463 15.8844,-21.863368 -10.61935,-19.989364 7.13906,-9.637729"
     id="path3783"
     style="color:#000000;fill:none;stroke:#000000;stroke-width:1;stroke-linecap:butt;stroke-linejoin:miter;stroke-miterlimit:4;stroke-opacity:1;stroke-dasharray:none;stroke-dashoffset:0;marker:none;visibility:visible;display:inline;overflow:visible;enable-background:accumulate" />
  <path
     d="m 176.17788,490.91346 56.28605,-38.36538 -54.89783,-36.09375 49.09254,-36.85096 -48.33533,-37.48197 44.54928,-36.21995 -42.27765,-35.21034 37.22957,-34.95793 -36.72476,-37.60817 31.92909,-25.61899 L 182.36177,144.36299 210.5048,116.85098 183.74999,90.72718 203.9423,67.253623 187.28365,45.168287 197.88461,31.53848 190.5649,19.6755"
     id="path3781"
     style="color:#000000;fill:none;stroke:#000000;stroke-width:1;stroke-linecap:butt;stroke-linejoin:miter;stroke-miterlimit:4;stroke-opacity:1;stroke-dasharray:none;stroke-dashoffset:0;marker:none;visibility:visible;display:inline;overflow:visible;enable-background:accumulate" />
  <path
     d="m 168.98437,491.54447 55.65504,-35.96755 -53.25721,-36.97716 49.72356,-35.96754 -47.95673,-36.09375 43.79207,-35.84135 -41.77284,-36.34615 38.23918,-34.95793 -34.45312,-32.30769 30.66707,-29.15265 -30.16226,-28.01682 27.13341,-27.38582 L 180.84735,97.163477 202.30168,70.030065 186.27403,49.96396 197.506,32.421893 190.6911,21.316125"
     id="path3779"
     style="color:#000000;fill:none;stroke:#000000;stroke-width:1;stroke-linecap:butt;stroke-linejoin:miter;stroke-miterlimit:4;stroke-opacity:1;stroke-dasharray:none;stroke-dashoffset:0;marker:none;visibility:visible;display:inline;overflow:visible;enable-background:accumulate" />
  <path
     d="M 175.79927,490.53486 184.18771,89.861085 193.20077,4.6385734 181.42133,92.62747 169.61574,491.79937 m 57.31708,3.11405 L 205.1587,89.59337 193.64696,4.9062881 m 0.17848,0.356953 14.72431,87.0072759 26.05756,403.267573 m -227.1113,-259.3263 169.55264,3.92648 39.62178,-1.78477 168.12483,-1.42781 -167.76788,-4.64039 -38.19396,1.78477 -171.33741,2.14172 z m 0.35695,0 170.26655,-35.6953 39.26482,0.71391 166.69702,35.33834 L 213.1009,206.94165 177.04865,206.58469 7.85296,236.21179 z M 53.25721,119.37502 181.98317,91.105785 208.99038,90.853382 337.21153,119.87982 208.23316,97.668285 181.22595,97.920689 53.25721,119.37502 z"
     id="path3748-7"
     style="color:#000000;fill:none;stroke:#000000;stroke-width:2;stroke-linecap:butt;stroke-linejoin:miter;stroke-miterlimit:4;stroke-opacity:1;stroke-dasharray:none;stroke-dashoffset:0;marker:none;visibility:visible;display:inline;overflow:visible;enable-background:accumulate" />
</svg>
